<?xml version="1.0" encoding="UTF-8" standalone="no"?>
<!-- Created with Inkscape (http://www.inkscape.org/) -->

<svg
   version="1.1"
   id="svg2"
   xml:space="preserve"
   width="1866.6667"
   height="1143.3333"
   viewBox="0 0 1866.6667 1143.3333"
   sodipodi:docname="praia-footer.svg"
   inkscape:version="1.1.2 (0a00cf5339, 2022-02-04)"
   xmlns:inkscape="http://www.inkscape.org/namespaces/inkscape"
   xmlns:sodipodi="http://sodipodi.sourceforge.net/DTD/sodipodi-0.dtd"
   xmlns="http://www.w3.org/2000/svg"
   xmlns:svg="http://www.w3.org/2000/svg"><defs
     id="defs6"><clipPath
       clipPathUnits="userSpaceOnUse"
       id="clipPath16"><path
         d="M 0,857.5 H 1400 V 0 H 0 Z"
         id="path14" /></clipPath><linearGradient
       x1="0"
       y1="0"
       x2="1"
       y2="0"
       gradientUnits="userSpaceOnUse"
       gradientTransform="matrix(0,710.34045,-710.34045,0,700.45001,281.70929)"
       spreadMethod="pad"
       id="linearGradient42"><stop
         style="stop-opacity:1;stop-color:#99d5e2"
         offset="0"
         id="stop34" /><stop
         style="stop-opacity:1;stop-color:#99d5e2"
         offset="0.1539"
         id="stop36" /><stop
         style="stop-opacity:1;stop-color:#79c8d7"
         offset="0.7683"
         id="stop38" /><stop
         style="stop-opacity:1;stop-color:#79c8d7"
         offset="1"
         id="stop40" /></linearGradient><linearGradient
       x1="0"
       y1="0"
       x2="1"
       y2="0"
       gradientUnits="userSpaceOnUse"
       gradientTransform="matrix(0,330.87128,-330.87128,0,700,199.45399)"
       spreadMethod="pad"
       id="linearGradient66"><stop
         style="stop-opacity:1;stop-color:#65c4ce"
         offset="0"
         id="stop58" /><stop
         style="stop-opacity:1;stop-color:#65c4ce"
         offset="0.1539"
         id="stop60" /><stop
         style="stop-opacity:1;stop-color:#3ab7cd"
         offset="0.7683"
         id="stop62" /><stop
         style="stop-opacity:1;stop-color:#3ab7cd"
         offset="1"
         id="stop64" /></linearGradient><clipPath
       clipPathUnits="userSpaceOnUse"
       id="clipPath76"><path
         d="M 0,857.5 H 1400 V 0 H 0 Z"
         id="path74" /></clipPath><clipPath
       clipPathUnits="userSpaceOnUse"
       id="clipPath84"><path
         d="M 0,540.961 H 1400 V 366.768 H 0 Z"
         id="path82" /></clipPath><linearGradient
       x1="0"
       y1="0"
       x2="1"
       y2="0"
       gradientUnits="userSpaceOnUse"
       gradientTransform="matrix(0,208.7785,-208.7785,0,700,147.06128)"
       spreadMethod="pad"
       id="linearGradient114"><stop
         style="stop-opacity:1;stop-color:#3ec0c5"
         offset="0"
         id="stop106" /><stop
         style="stop-opacity:1;stop-color:#3ec0c5"
         offset="0.1539"
         id="stop108" /><stop
         style="stop-opacity:1;stop-color:#25b1c2"
         offset="0.7683"
         id="stop110" /><stop
         style="stop-opacity:1;stop-color:#25b1c2"
         offset="1"
         id="stop112" /></linearGradient><clipPath
       clipPathUnits="userSpaceOnUse"
       id="clipPath124"><path
         d="M 0,857.5 H 1400 V 0 H 0 Z"
         id="path122" /></clipPath><clipPath
       clipPathUnits="userSpaceOnUse"
       id="clipPath132"><path
         d="M 0,370.797 H 1400 V 103.4 H 0 Z"
         id="path130" /></clipPath><clipPath
       clipPathUnits="userSpaceOnUse"
       id="clipPath148"><path
         d="M 0,208.331 H 1400 V 15.5 H 0 Z"
         id="path146" /></clipPath><linearGradient
       x1="0"
       y1="0"
       x2="1"
       y2="0"
       gradientUnits="userSpaceOnUse"
       gradientTransform="matrix(0,141.45789,-141.45789,0,700,19.282595)"
       spreadMethod="pad"
       id="linearGradient178"><stop
         style="stop-opacity:1;stop-color:#00b8c4"
         offset="0"
         id="stop170" /><stop
         style="stop-opacity:1;stop-color:#00b8c4"
         offset="0.1539"
         id="stop172" /><stop
         style="stop-opacity:1;stop-color:#00a9b2"
         offset="0.7683"
         id="stop174" /><stop
         style="stop-opacity:1;stop-color:#00a9b2"
         offset="1"
         id="stop176" /></linearGradient><clipPath
       clipPathUnits="userSpaceOnUse"
       id="clipPath188"><path
         d="M 0,857.5 H 1400 V 0 H 0 Z"
         id="path186" /></clipPath><clipPath
       clipPathUnits="userSpaceOnUse"
       id="clipPath232"><path
         d="M 0,857.5 H 1400 V 0 H 0 Z"
         id="path230" /></clipPath><clipPath
       clipPathUnits="userSpaceOnUse"
       id="clipPath240"><path
         d="M 185.9,253 H 363.301 V 174.1 H 185.9 Z"
         id="path238" /></clipPath><clipPath
       clipPathUnits="userSpaceOnUse"
       id="clipPath260"><path
         d="m 932.1,140.8 h 183.8 V 59 H 932.1 Z"
         id="path258" /></clipPath></defs><sodipodi:namedview
     id="namedview4"
     pagecolor="#ffffff"
     bordercolor="#666666"
     borderopacity="1.0"
     inkscape:pageshadow="2"
     inkscape:pageopacity="0.0"
     inkscape:pagecheckerboard="0"
     showgrid="false"
     inkscape:zoom="0.45481053"
     inkscape:cx="465.02881"
     inkscape:cy="571.66663"
     inkscape:window-width="1366"
     inkscape:window-height="696"
     inkscape:window-x="0"
     inkscape:window-y="0"
     inkscape:window-maximized="1"
     inkscape:current-layer="g8" /><g
     id="g8"
     inkscape:groupmode="layer"
     inkscape:label="praia-footer"
     transform="matrix(1.3333333,0,0,-1.3333333,0,1143.3333)"><g
       id="g10"><g
         id="g12"
         clip-path="url(#clipPath16)"><g
           id="g18"
           transform="translate(167.3999,541.3002)"><path
             d="m 0,0 c 94.5,44 145.5,27.5 207,0 61.5,-27.5 90,-33 126,-26.6 36,6.4 40.5,17 109.5,-11.8 69,-28.8 168,-63.2 295.5,-13.7 127.5,49.5 186,19.2 312,-23.4 126,-42.7 182.6,10.8 182.6,10.8 v 203.4 c 0,0 -42.5,-66.7 -120.5,-38.7 -78,28 -86.8,78.9 -124.3,74.8 -37.5,-4.1 -53.2,-14.1 -74.2,18.9 -21,33 -62.1,103.6 -132.6,87.2 -70.5,-16.5 -74.4,-54.2 -107.4,-45.9 -33,8.3 -48.8,-13.6 -81.8,-46.5 -33,-33 -117.7,-58.9 -201.7,-1.4 -84,57.5 -82.4,78 -130.4,65.6 -48,-12.4 -46,-38.5 -85.6,7.7 -23.3,27.2 -85.9,63 -138.4,14.9 -52.5,-48.1 -46.3,-94.4 -85.3,-94 -39,0.4 -86.7,2.9 -116.7,-42.5 V -44.4 C -100.8,-54 -94,-43.8 0,0"
             style="fill:#f8f3eb;fill-opacity:1;fill-rule:nonzero;stroke:none"
             id="path20" /></g></g></g><g
       id="g22"><g
         id="g24"><g
           id="g30"><g
             id="g32"><path
               d="M 210.9,768.2 C 158.4,720.1 146.4,712.6 107.4,712.9 v 0 C 68.4,713.201 30.9,698.1 0.9,652.801 v 0 V 469.5 c 65.7,-9.6 72.5,0.701 166.5,44.4 v 0 c 94.5,44 145.5,27.499 207,0 v 0 c 61.5,-27.5 90,-33 126,-26.599 v 0 c 36,6.399 40.5,17 109.5,-11.801 v 0 c 69,-28.9 168.001,-63.2 295.5,-13.7 v 0 c 127.5,49.5 186,19.2 312,-23.4 v 0 c 126,-42.6 182.6,10.9 182.6,10.9 v 0 203.4 c 0,0 -46.099,-43.7 -124.1,-15.6 v 0 c -78,28 -87,36.3 -124.499,32.1 v 0 c -37.501,-4.2 -49.5,5.5 -70.501,38.5 v 0 c -21,33 -59.999,79.7 -130.5,63.199 v 0 C 879.9,754.4 873.9,740.7 840.901,748.9 v 0 c -33.001,8.2 -49.5,1.4 -82.501,-31.6 v 0 c -33,-32.999 -117,-73.8 -201,-16.3 v 0 c -84,57.5 -87,57.5 -135,45.2 v 0 c -48,-12.3 -52.5,5.5 -81,28.2 v 0 c -15.508,12.352 -37.236,23.667 -62.279,23.668 v 0 C 258.14,798.069 234.833,790.128 210.9,768.2"
               style="fill:url(#linearGradient42);stroke:none"
               id="path44" /></g></g></g></g><g
       id="g46"><g
         id="g48"><g
           id="g54"><g
             id="g56"><path
               d="M 167.4,513.8 C 72.9,469.8 66.5,459.7 0,469.6 v 0 -181.5 c 52,58.6 132,89.8 191,81.5 v 0 c 59,-8.299 61,-17.4 118,-13.7 v 0 c 26.507,1.72 43.715,-9.642 60.473,-21.005 v 0 C 388.751,321.824 407.436,308.752 439,315.6 v 0 c 59,12.8 40,4.599 143,-24.7 v 0 c 103,-29.3 184,-7.3 247,19.2 v 0 c 63,26.6 128,-8.2 170,-33.901 v 0 c 42,-25.698 98,-51.299 145,-38.499 v 0 c 47,12.801 48,11 123,-2.699 v 0 c 75,-13.802 133,45.698 133,45.698 v 0 168.501 c 0,0 -56.6,-53.501 -182.6,-10.9 v 0 c -126,42.6 -184.5,72.8 -312,23.4 v 0 C 777.901,412.3 678.9,446.6 609.9,475.4 v 0 c -69,28.901 -73.5,18.2 -109.5,11.8 v 0 c -36,-6.4 -64.5,-0.899 -126,26.6 v 0 c -34.166,15.278 -65.093,27.16 -102.037,27.161 v 0 c -29.556,0 -62.962,-7.605 -104.963,-27.161 M 0,288.1 v -38 c 1,0 0,0 0,0 v 0 38 c 0,0 0,0 0,0"
               style="fill:url(#linearGradient66);stroke:none"
               id="path68" /></g></g></g></g><g
       id="g70"><g
         id="g72"
         clip-path="url(#clipPath76)"><g
           id="g78"><g
             id="g80" /><g
             id="g92"><g
               clip-path="url(#clipPath84)"
               opacity="0.300003"
               id="g90"><g
                 transform="translate(167.3999,458.8002)"
                 id="g88"><path
                   d="m 0,0 c 94.5,44 145.5,27.5 207,0 61.5,-27.5 90,-33 126,-26.6 36,6.4 40.5,17 109.5,-11.8 69,-28.8 168,-63.201 295.5,-13.701 127.5,49.501 186,19.201 312,-23.399 126,-42.7 182.6,10.8 182.6,10.8 v 55.1 c 0,0 -56.6,-53.501 -182.6,-10.9 C 924,22.1 865.5,52.3 738,2.9 610.5,-46.5 511.5,-12.2 442.5,16.6 373.5,45.5 369,34.8 333,28.4 297,22 268.5,27.5 207,55 145.5,82.5 94.5,99 0,55 -94.5,11 -100.9,0.9 -167.4,10.8 V -44.3 C -100.8,-54.2 -94.5,-44 0,0"
                   style="fill:#eae5da;fill-opacity:1;fill-rule:nonzero;stroke:none"
                   id="path86" /></g></g></g></g></g></g><g
       id="g94"><g
         id="g96"><g
           id="g102"><g
             id="g104"><path
               d="M 0,288 V 103.4 c 12.7,15.2 46.3,60.8 110,77.5 v 0 c 42.729,11.209 73.757,0.955 106.412,-9.3 v 0 C 242.602,163.376 269.839,155.151 305,158 v 0 c 79,6.399 104,-0.9 149,-19.3 v 0 c 45,-18.3 93,-43.1 189,-44.9 v 0 c 96,-1.799 141,63.201 219,64.1 v 0 c 35.934,0.414 54.251,-7.13 69.816,-14.674 v 0 C 950.036,134.394 964.484,125.563 999,129.5 v 0 c 64,7.3 99,-48.5 209,-70.5 v 0 c 110,-21.999 192,34.8 192,34.8 v 0 186.899 c 0,0 -58,-59.5 -133,-45.799 v 0 c -75,13.7 -76,15.601 -123,2.7 v 0 c -47,-12.8 -103,12.8 -145,38.5 v 0 C 957,301.801 892,336.6 829,310 v 0 C 766,283.4 685,261.5 582,290.8 v 0 c -103,29.3 -84,37.6 -143,24.7 v 0 c -31.564,-6.848 -50.249,6.224 -69.527,19.296 v 0 C 352.715,346.158 335.507,357.521 309,355.801 v 0 c -57,-3.701 -59,5.5 -118,13.699 v 0 c -6.252,0.869 -12.749,1.297 -19.414,1.297 v 0 C 115.351,370.801 46.49,340.391 0,288"
               style="fill:url(#linearGradient114);stroke:none"
               id="path116" /></g></g></g></g><g
       id="g118"><g
         id="g120"
         clip-path="url(#clipPath124)"><g
           id="g126"><g
             id="g128" /><g
             id="g140"><g
               clip-path="url(#clipPath132)"
               opacity="0.199997"
               id="g138"><g
                 transform="translate(0.5,104.0004)"
                 id="g136"><path
                   d="m 0,0 v 94.5 c 52,58.6 132,89.8 191,81.5 59,-8.301 61,-17.4 118,-13.7 57,3.7 71,-53.101 130,-40.3 59,12.8 40,4.6 143,-24.7 103,-29.3 184,-7.3 247,19.2 63,26.5 128,-8.2 170,-33.9 42,-25.6 98,-51.3 145,-38.5 47,12.799 48,11 123,-2.701 71.1,-13.099 126.9,39.8 132.5,45.3 v 90 c 0,0 -58,-59.5 -133,-45.8 -75,13.701 -76,15.601 -123,2.701 -47,-12.8 -103,12.799 -145,38.5 -42,25.7 -107,60.5 -170,33.9 -63,-26.601 -144,-48.5 -247,-19.2 -103,29.3 -84,37.599 -143,24.7 -59,-12.801 -73,44 -130,40.3 -57,-3.7 -59,5.5 -118,13.7 -59,8.199 -139,-22.9 -191,-81.5 V -0.601 C -0.4,-0.4 -0.2,-0.2 0,0"
                   style="fill:#eae5da;fill-opacity:1;fill-rule:nonzero;stroke:none"
                   id="path134" /></g></g></g></g><g
           id="g142"><g
             id="g144" /><g
             id="g156"><g
               clip-path="url(#clipPath148)"
               opacity="0.5"
               id="g154"><g
                 transform="translate(1400,108.8998)"
                 id="g152"><path
                   d="m 0,0 c 0,0 -68,-67.3 -178,-45.3 -110,22 -159,88.401 -223,81.1 -64,-7.3 -59,42 -137,41 -78,-1 -123,-86.4 -219,-84.6 -96,1.8 -144,51.3 -189,69.6 -45,18.301 -69,-1.8 -148,-8.199 -79,-6.401 -120,62.299 -197,42.099 -77,-20.2 -109,-91.099 -109,-91.099 v -98 H 0 Z"
                   style="fill:#eae5da;fill-opacity:1;fill-rule:nonzero;stroke:none"
                   id="path150" /></g></g></g></g></g></g><g
       id="g158"><g
         id="g160"><g
           id="g166"><g
             id="g168"><path
               d="M 110,180.9 C 33,160.8 0,98.4 0,98.4 v 0 -98 h 1400 v 93.4 c 0,0 -82,-56.799 -192,-34.8 v 0 c -110,22 -145,77.9 -209,70.5 v 0 c -34.546,-3.994 -48.988,4.86 -67.231,13.714 v 0 c -15.554,7.55 -33.871,15.1 -69.769,14.686 v 0 C 784,157.001 739,91.9 643,93.8 v 0 c -96,1.901 -144,26.6 -189,44.901 v 0 c -45,18.3 -70,25.698 -149,19.299 v 0 c -35.182,-2.851 -62.43,5.365 -88.635,13.582 v 0 c -22.577,7.079 -44.384,14.158 -69.819,14.159 v 0 c -11.332,0 -23.382,-1.405 -36.546,-4.841"
               style="fill:url(#linearGradient178);stroke:none"
               id="path180" /></g></g></g></g><g
       id="g182"><g
         id="g184"
         clip-path="url(#clipPath188)"><g
           id="g190"
           transform="translate(110,180.8998)"><path
             d="M 0,0 C -77,-20.2 -110,-82.399 -110,-82.399 V -90.8 c 38,30.1 98,38.1 171,3 97,-46.599 92,-33.099 172,0 80,33.1 166,11.8 274,-31.3 108,-43.1 202,-1.799 339,38.5 58.5,17.201 102.4,12 143.1,-1.6 -36.7,18.801 -63.7,35.1 -100.1,30.9 -64,-7.3 -59,29.3 -137,28.401 -78,-0.901 -123,-66 -219,-64.101 -96,1.9 -144,26.601 -189,44.9 -45,18.3 -70,25.701 -149,19.3 C 116,-29.399 77,20.101 0,0 Z"
             style="fill:none;stroke:#eae5da;stroke-width:1;stroke-linecap:butt;stroke-linejoin:miter;stroke-miterlimit:10;stroke-dasharray:none;stroke-opacity:1"
             id="path192" /></g><g
           id="g194"
           transform="translate(1208,59.0004)"><path
             d="M 0,0 C -14.2,2.8 -27.1,6.199 -39,10 -8,-4.301 25,-18.801 65,-27.5 188,-54 192,-11.9 192,-11.9 V 34.8 C 192,34.8 110,-22 0,0 Z"
             style="fill:none;stroke:#eae5da;stroke-width:1;stroke-linecap:butt;stroke-linejoin:miter;stroke-miterlimit:10;stroke-dasharray:none;stroke-opacity:1"
             id="path196" /></g><g
           id="g198"
           transform="translate(0,70.8998)"><path
             d="m 0,0 c 14.2,12.4 32.2,21.101 52.4,25.2 35.8,7.3 76.4,0.401 120.4,-20.8 48.9,-23.4 72.8,-33.599 96.6,-32.799 24.3,0.899 47.5,13.099 93.6,37.5 l 6.3,3.299 c 80,42.3 141.7,8.901 213.1,-29.7 14.9,-8.099 30.3,-16.4 46.4,-24.3 43.3,-21.299 75.4,-28.099 110.8,-23.2 34.6,4.7 72.1,20.8 124.1,43.1 6.6,2.801 13.4,5.7 20.5,8.801 64,27.199 105.1,36.699 146.5,33.699 44.9,-3.3 92.7,-21.699 160.1,-52.3 71.9,-32.7 128,-37.6 162.4,-35.899 21.3,1 37.1,4.599 46.8,7.599 v 1 c -9.6,-3 -25.5,-6.7 -47,-7.7 -62,-3 -122.2,17.8 -161.8,35.8 -67.5,30.7 -115.4,49.1 -160.4,52.301 -4.9,0.299 -9.7,0.5 -14.6,0.5 -37,0 -75.8,-10.201 -132.4,-34.301 -7.1,-3 -13.9,-5.9 -20.5,-8.8 -51.9,-22.2 -89.4,-38.3 -123.8,-43 -35.2,-4.8 -67.1,1.9 -110.2,23.101 C 613.2,-33 597.8,-24.7 582.9,-16.6 534.9,9.4 491.3,33 443.6,33 420,33 395.4,27.2 368.8,13.2 L 362.5,9.9 C 271.4,-38.3 267.9,-40.2 173.3,5.2 129,26.4 88.3,33.4 52.2,26.101 32.2,22 14.3,13.4 0.1,1.2 Z"
             style="fill:#eae5da;fill-opacity:1;fill-rule:nonzero;stroke:none"
             id="path200" /></g><g
           id="g202"
           transform="translate(1400,195.5004)"><path
             d="m 0,0 c -11.1,-6.7 -24.8,-13.7 -40.9,-19.801 -28.1,-10.5 -58,-16.099 -88.8,-16.399 -38.5,-0.401 -78.6,7.3 -119.1,22.899 -46.7,18 -84,36.5 -116.9,52.901 -46.8,23.2 -83.7,41.599 -125.5,47.9 -10.3,1.6 -20.7,2.399 -31.4,2.399 -35.7,0 -74.2,-9 -120.6,-27.699 -89.1,-36.1 -135.9,-49.301 -172.7,-48.6 -37.5,0.6 -64.7,16.6 -105.9,40.9 -10.9,6.399 -20.7,12.399 -29.3,17.7 -28.9,17.6 -48,29.3 -69,33.4 -20.6,4 -43.6,1 -82.1,-10.701 -18.5,-5.599 -33.3,-11.099 -46.4,-15.799 -47.3,-17.3 -66.9,-24.4 -130.2,8.5 -41.9,21.799 -80.9,8.1 -106.3,-7.201 -5.4,-3.299 -10.4,-6.699 -15,-10.199 v -1.301 c 4.7,3.601 9.9,7.201 15.5,10.601 16,9.7 32.1,15.6 47.9,17.6 19.7,2.6 39,-1 57.3,-10.5 63.7,-33.1 83.4,-25.9 131.1,-8.5 13.1,4.799 27.9,10.2 46.4,15.799 38.3,11.701 61.2,14.701 81.6,10.701 20.8,-4.1 39.9,-15.701 68.7,-33.3 8.6,-5.3 18.4,-11.2 29.3,-17.7 83.6,-49.201 106.1,-62.5 279.5,7.7 127.4,51.5 183.6,23.7 276.6,-22.5 33,-16.401 70.3,-34.901 117,-52.901 40.7,-15.699 80.9,-23.399 119.5,-23 30.9,0.301 60.9,5.901 89.1,16.5 16,5.901 29.6,12.901 40.6,19.5 z"
             style="fill:#eae5da;fill-opacity:1;fill-rule:nonzero;stroke:none"
             id="path204" /></g><g
           id="g206"
           transform="translate(1400,245.5004)"><path
             d="m 0,0 c -11.1,-6.7 -24.8,-13.7 -40.9,-19.801 -28.1,-10.5 -58,-16.099 -88.8,-16.399 -38.5,-0.401 -78.6,7.3 -119.1,22.899 -46.7,18 -84,36.5 -116.9,52.901 -46.8,23.2 -83.7,41.599 -125.5,47.9 -10.3,1.6 -20.7,2.399 -31.4,2.399 -35.7,0 -74.2,-9 -120.6,-27.699 -89.1,-36.1 -135.9,-49.301 -172.7,-48.6 -37.5,0.6 -64.7,16.6 -105.9,40.9 -10.9,6.399 -20.7,12.399 -29.3,17.7 -28.9,17.6 -48,29.3 -69,33.4 -20.6,4 -43.6,1 -82.1,-10.701 -18.5,-5.599 -33.3,-11.099 -46.4,-15.799 -47.3,-17.3 -66.9,-24.4 -130.2,8.5 -41.9,21.799 -80.9,8.1 -106.3,-7.201 -5.4,-3.299 -10.4,-6.699 -15,-10.199 v -1.301 c 4.7,3.601 9.9,7.201 15.5,10.601 16,9.7 32.1,15.6 47.9,17.6 19.7,2.6 39,-1 57.3,-10.5 63.7,-33.1 83.4,-25.9 131.1,-8.5 13.1,4.799 27.9,10.2 46.4,15.799 38.3,11.701 61.2,14.701 81.6,10.701 20.8,-4.1 39.9,-15.701 68.7,-33.3 8.6,-5.3 18.4,-11.2 29.3,-17.7 83.6,-49.201 106.1,-62.5 279.5,7.7 127.4,51.5 183.6,23.7 276.6,-22.5 33,-16.401 70.3,-34.901 117,-52.901 40.7,-15.699 80.9,-23.399 119.5,-23 30.9,0.301 60.9,5.901 89.1,16.5 16,5.901 29.6,12.901 40.6,19.5 z"
             style="fill:#eae5da;fill-opacity:1;fill-rule:nonzero;stroke:none"
             id="path208" /></g><g
           id="g210"
           transform="translate(0,442.8002)"><path
             d="m 0,0 v -1.2 c 8.8,-7.1 19.5,-11.7 31.4,-13.1 21.1,-2.6 43.5,4.8 61.4,20.5 12,10.5 36.8,29.2 69,37.7 31.5,8.3 61.1,4.3 87.9,-11.8 5.6,-3.4 10.8,-6.6 15.8,-9.6 23.4,-14.4 40.3,-24.8 61,-27.6 21.2,-2.8 46,2 85.6,16.8 88.1,32.8 121.1,22 236.5,-43 98.2,-55.301 169.1,-24 258.8,15.6 16.2,7.2 32.9,14.6 50.7,21.8 55.9,23 91.5,29.7 127,24 35.6,-5.7 70.9,-24.1 124.3,-52 5.9,-3.1 11.9,-6.201 18.2,-9.5 34.9,-18.1 87.1,-37 137.6,-23.8 15.4,4 27,10.099 34.7,15.099 V -39 c -7.6,-5 -19.3,-11.3 -35,-15.4 -50.2,-13.1 -102.2,5.7 -136.9,23.7 -6.3,3.3 -12.4,6.5 -18.2,9.5 -53.5,27.9 -88.9,46.4 -124.6,52.1 C 1049.5,36.6 1013.8,29.8 957.7,6.8 940,-0.5 923.2,-7.9 907,-15 861.3,-35.2 821.8,-52.7 780.8,-58.5 735.9,-64.9 694.1,-56 649.1,-30.7 575.1,11 534.8,30.5 492.3,30.5 468.3,30.5 443.6,24.3 411.7,12.4 372.2,-2.3 347.6,-7.2 326.6,-4.3 306.1,-1.5 289.3,8.8 266,23.1 c -5,3.1 -10.2,6.3 -15.8,9.6 -17.9,10.7 -37,16.1 -57.1,16.1 -10.3,0 -20.8,-1.4 -31.6,-4.2 C 129.1,36.1 104.1,17.2 92.1,6.7 74.4,-8.7 52.4,-16.101 31.5,-13.5 19.6,-12 8.8,-7.3 0,0"
             style="fill:#eae5da;fill-opacity:1;fill-rule:nonzero;stroke:none"
             id="path212" /></g><g
           id="g214"
           transform="translate(1400,344.1)"><path
             d="m 0,0 c -31.6,-14.2 -65.3,-15.1 -102.7,-2.8 -37.2,12.2 -74.6,36 -110.7,59.1 -15.9,10.1 -32.3,20.6 -48.4,29.9 -81.5,47.1 -116.2,27.5 -208.7,-25 C -480.6,55.5 -491,49.6 -502.3,43.3 -554,14.5 -610.2,6.4 -669.4,19.4 c -53.1,11.6 -98.8,38.4 -127.9,58.8 -35.3,24.8 -60.3,35.6 -86.1,37.2 -27.3,1.6 -56.9,-7.1 -98.9,-29.1 -37.5,-19.7 -70.4,-25.9 -103.6,-19.7 -30.7,5.8 -58.8,21.2 -91.3,39.1 -63.4,34.8 -95.5,12.6 -148.5,-24.2 l -4.6,-3.2 c -19.5,-13.5 -37.5,-19 -53.7,-16.4 -6.4,1 -11.8,3.3 -16,5.8 v -1.1 c 4.2,-2.4 9.5,-4.6 15.8,-5.6 16.4,-2.7 34.8,2.9 54.5,16.5 l 4.6,3.2 c 52.7,36.6 84.5,58.7 147.4,24.2 32.6,-17.9 60.8,-33.4 91.6,-39.2 33.5,-6.3 66.6,0 104.3,19.8 41.9,22 71.3,30.6 98.4,29 25.6,-1.5 50.4,-12.3 85.6,-37 52.7,-37.1 98.8,-52.5 128.2,-59 59.4,-13 115.8,-4.9 167.8,24 11.4,6.3 21.8,12.2 31.8,17.9 92.2,52.2 126.6,71.8 207.6,25 16.2,-9.3 32.6,-19.8 48.4,-29.9 36.2,-23.1 73.6,-46.9 110.9,-59.2 C -65.6,-16 -31.7,-15.1 0,-1 Z"
             style="fill:#eae5da;fill-opacity:1;fill-rule:nonzero;stroke:none"
             id="path216" /></g><g
           id="g218"
           transform="translate(0.8999,641.3998)"><path
             d="m 0,0 c 22.4,4.9 45.4,4.7 64.4,2.9 114.6,-11 134.9,8.8 171.6,44.8 3.7,3.6 7.6,7.4 11.8,11.4 20.3,19.2 37.7,27.9 56.4,28.1 h 0.8 c 26.4,0 56.2,-16.7 99.6,-55.6 35.7,-32.1 64.7,-50.6 88.5,-56.8 20.6,-5.3 38.3,-1.7 55.8,11.4 15.7,11.8 31.3,16 52.2,14.2 19,-1.7 43.4,-8.6 84.2,-23.8 34,-12.7 62.8,-12.1 90.6,2.1 25,12.7 46,34.6 69,59.9 24.1,26.5 52.4,40.8 79.6,40.1 21.8,-0.6 41.1,-10.6 56.1,-29 19.5,-24.1 36.5,-42.7 55.8,-55.2 23,-14.9 46.1,-18.4 70.8,-10.9 l 4,1.2 c 51.3,15.7 88.3,27.1 189,-45.1 23.7,-17 47.4,-28 70.6,-32.7 9.6,-1.9 19,-2.8 28.4,-2.6 v 0.9 c -9.3,-0.2 -18.7,0.7 -28.2,2.6 -23,4.7 -46.6,15.6 -70.1,32.5 -61.3,43.9 -99.1,57 -130.9,57 -20.7,0 -38.8,-5.6 -59.1,-11.8 l -4,-1.2 c -24.3,-7.4 -47.2,-3.9 -69.9,10.8 -19.2,12.4 -36.1,31 -55.6,55 C 966.3,68.9 946.6,79 924.5,79.6 897,80.3 868.4,66 844.1,39.2 821.2,14 800.2,-7.8 775.4,-20.5 c -27.5,-14 -56,-14.7 -89.8,-2 C 644.8,-7.2 620.3,-0.3 601.1,1.4 580,3.3 564.1,-1 548.2,-13 531,-25.9 513.6,-29.5 493.3,-24.2 469.7,-18.1 440.9,0.4 405.3,32.4 361.7,71.5 331.7,88.3 305,88.3 h -0.8 c -19,-0.2 -36.6,-9 -57.1,-28.4 -4.2,-3.9 -8,-7.7 -11.8,-11.4 C 198.7,12.7 178.6,-7 64.5,4 40.6,6.3 18.9,5.3 0,1.2 Z"
             style="fill:#eae5da;fill-opacity:1;fill-rule:nonzero;stroke:none"
             id="path220" /></g><g
           id="g222"
           transform="translate(1400,496.3002)"><path
             d="m 0,0 c -10.2,-2.4 -19,1.2 -35.9,11.1 -10.7,6.3 -25.4,14.9 -47.5,24.8 -26.1,11.7 -41.9,22.2 -54.6,30.6 -24.1,16 -35.2,23.4 -80.8,13.4 l -1.8,-0.4 c -68,-14.9 -96.1,-21.1 -167.3,34.5 -33,25.7 -66,38 -98,36.5 -25.8,-1.2 -49.9,-11.7 -67.7,-29.5 -35,-35.1 -80.6,-43.3 -128.4,-23 -25.4,10.7 -46.7,18.3 -68,20.1 -21.2,1.8 -42.9,-1.9 -70.4,-12.1 -8.9,-3.3 -16.7,-6.8 -24.3,-10.2 -39.5,-17.6 -65.5,-29.2 -144.7,30.7 -42.4,32 -72.5,44.2 -98.2,44.2 -29.8,0 -53.8,-16.4 -84.2,-37.2 -2,-1.4 -4.1,-2.8 -6.2,-4.2 -40.2,-27.4 -65.9,-23.2 -104.9,-16.8 -19.4,3.2 -41.4,6.8 -69.8,7.3 -17.8,0.3 -33.2,-2.8 -46.5,-7.7 v -1 c 13.2,5 28.7,8.1 46.5,7.8 28.4,-0.5 50.3,-4.1 69.7,-7.2 39.2,-6.4 65.1,-10.7 105.7,16.9 2.1,1.4 4.2,2.8 6.2,4.2 56.3,38.5 90.2,61.8 181.1,-7 79.7,-60.2 106,-48.5 145.8,-30.8 7.6,3.4 15.4,6.9 24.2,10.1 57,21.2 87,13.4 137.6,-8 48.299,-20.4 94.299,-12.2 129.6,23.2 17.6,17.7 41.4,28.1 67,29.2 31.8,1.5 64.5,-10.8 97.3,-36.3 71.6,-55.8 99.8,-49.6 168.2,-34.7 l 1.8,0.4 c 45.2,9.9 56.1,2.6 79.9,-13.2 12.7,-8.4 28.5,-18.9 54.7,-30.7 22,-9.9 36.7,-18.5 47.4,-24.7 16.3,-9.6 24.3,-14.2 36.5,-11 z"
             style="fill:#eae5da;fill-opacity:1;fill-rule:nonzero;stroke:none"
             id="path224" /></g></g></g><g
       id="g226"><g
         id="g228"
         clip-path="url(#clipPath232)"><g
           id="g234"><g
             id="g236" /><g
             id="g248"><g
               clip-path="url(#clipPath240)"
               opacity="0.199997"
               id="g246"><g
                 transform="translate(342.8999,232.1996)"
                 id="g244"><path
                   d="M 0,0 C -5.4,0 -10.4,-2.1 -14.1,-5.6 -19.9,1 -28.3,5.101 -37.8,5.101 c -4.6,0 -9.1,-1 -13,-2.8 -6.5,11 -18.5,18.5 -32.3,18.5 -14.9,0 -27.8,-8.7 -33.8,-21.401 -7.6,-1.7 -13.9,-6.9 -17,-13.799 -1.2,0.2 -2.4,0.299 -3.6,0.299 -10.8,0 -19.5,-8.7 -19.5,-19.5 0,-10.799 8.7,-19.5 19.5,-19.5 6,0 11.4,2.701 14.9,7 3.3,-1.7 7,-2.599 11,-2.599 2.7,0 5.2,0.399 7.7,1.3 5.9,-4 13.1,-6.401 20.9,-6.401 7.9,0 15.2,2.401 21.3,6.7 5.8,-6.7 14.4,-11 23.9,-11 13.1,0 24.2,7.901 29,19.1 2.7,-1.3 5.6,-2 8.7,-2 11.3,0 20.5,9.2 20.5,20.5 C 20.5,-9.199 11.3,0 0,0"
                   style="fill:#4b7cab;fill-opacity:1;fill-rule:nonzero;stroke:none"
                   id="path242" /></g></g></g></g><g
           id="g250"
           transform="translate(387.1001,304.3998)"><path
             d="M 0,0 C -8.2,0 -15.7,-3.2 -21.2,-8.399 -30,1.5 -42.8,7.8 -57.1,7.8 c -7,0 -13.7,-1.5 -19.7,-4.199 -9.8,16.699 -28,28 -48.7,28 -22.6,0 -42,-13.201 -51.1,-32.301 -11.5,-2.5 -21,-10.4 -25.7,-20.9 -1.8,0.3 -3.6,0.5 -5.5,0.5 -16.3,0 -29.5,-13.2 -29.5,-29.5 0,-16.299 13.2,-29.5 29.5,-29.5 9.1,0 17.2,4.1 22.6,10.6 5,-2.5 10.6,-3.899 16.5,-3.899 4.1,0 8,0.699 11.6,1.899 9,-6.1 19.9,-9.6 31.5,-9.6 12,0 23,3.701 32.2,10.1 8.8,-10.2 21.8,-16.6 36.3,-16.6 19.7,0 36.6,11.9 43.9,28.8 4,-1.9 8.5,-2.9 13.2,-2.9 17.2,0 31.1,13.9 31.1,31.1 C 31,-14 17.1,0 0,0"
             style="fill:#f7ede4;fill-opacity:1;fill-rule:nonzero;stroke:none"
             id="path252" /></g><g
           id="g254"><g
             id="g256" /><g
             id="g268"><g
               clip-path="url(#clipPath260)"
               opacity="0.199997"
               id="g266"><g
                 transform="translate(1094.7998,119.1996)"
                 id="g264"><path
                   d="m 0,0 c -5.6,0 -10.8,-2.199 -14.6,-5.8 -6,6.8 -14.799,11.101 -24.6,11.101 -4.8,0 -9.4,-1 -13.5,-2.901 -6.699,11.5 -19.199,19.201 -33.4,19.201 -15.5,0 -28.799,-9.101 -35,-22.201 -7.9,-1.7 -14.4,-7.099 -17.6,-14.299 -1.199,0.2 -2.5,0.399 -3.8,0.399 -11.2,0 -20.2,-9.1 -20.2,-20.199 0,-11.101 9.1,-20.2 20.2,-20.2 6.2,0 11.8,2.799 15.5,7.2 3.4,-1.7 7.3,-2.7 11.3,-2.7 2.801,0 5.4,0.5 7.9,1.299 6.2,-4.2 13.6,-6.599 21.6,-6.599 8.2,0 15.801,2.599 22.1,6.899 6,-7 14.9,-11.399 24.8,-11.399 13.5,0 25.1,8.199 30.1,19.8 2.7,-1.3 5.801,-2 9,-2 11.7,0 21.301,9.5 21.301,21.299 C 21.101,-9.3 11.7,0 0,0"
                   style="fill:#4b7cab;fill-opacity:1;fill-rule:nonzero;stroke:none"
                   id="path262" /></g></g></g></g><g
           id="g270"
           transform="translate(1149.2002,188.8998)"><path
             d="M 0,0 C -8.2,0 -15.601,-3.2 -21.2,-8.399 -29.9,1.5 -42.7,7.7 -56.9,7.7 c -7,0 -13.6,-1.5 -19.6,-4.2 -9.8,16.601 -27.8,27.8 -48.5,27.8 -22.5,0 -41.9,-13.199 -50.9,-32.3 -11.4,-2.5 -20.8,-10.3 -25.5,-20.8 -1.8,0.3 -3.6,0.5 -5.5,0.5 -16.201,0 -29.4,-13.2 -29.4,-29.4 0,-16.199 13.199,-29.4 29.4,-29.4 9,0 17.1,4.1 22.5,10.4 5,-2.5 10.6,-3.9 16.5,-3.9 4.1,0 8,0.701 11.6,1.9 8.9,-6 19.699,-9.5 31.3,-9.5 11.899,0 22.899,3.7 32,10 8.7,-10.1 21.7,-16.6 36.1,-16.6 19.6,0 36.5,11.901 43.799,28.8 4,-1.899 8.401,-2.899 13.101,-2.899 17.1,0 30.899,13.799 30.899,30.899 C 30.899,-13.899 17.1,0 0,0"
             style="fill:#f7ede4;fill-opacity:1;fill-rule:nonzero;stroke:none"
             id="path272" /></g></g></g></g></svg>
