<?xml version="1.0" encoding="utf-8"?>
<!-- Generator: Adobe Illustrator 23.1.0, SVG Export Plug-In . SVG Version: 6.00 Build 0)  -->
<svg version="1.1" id="Layer_1" xmlns="http://www.w3.org/2000/svg" xmlns:xlink="http://www.w3.org/1999/xlink" x="0px" y="0px"
	 viewBox="0 0 500 500" style="enable-background:new 0 0 500 500;" xml:space="preserve">
<style type="text/css">
	.st0{fill:#FF0000;}
	.st1{fill:#FFFFFF;}
	.st2{fill-rule:evenodd;clip-rule:evenodd;}
	.st3{fill-rule:evenodd;clip-rule:evenodd;fill:#0D6633;}
	.st4{fill-rule:evenodd;clip-rule:evenodd;fill:#FFCC00;}
</style>
<g>
	<path class="st0" d="M400,51.6v255.8c0,62.9-38.5,103.1-87.9,120.7c-19.1,6.8-39.8,10.2-60.5,10.2c-20.7,0-41.4-3.4-60.5-10.2
		c-49.3-17.6-87.9-57.8-87.9-120.7V51.6v-1.2l1-0.6c40.5-25.3,94-38.5,147.9-38.5c52.4,0,105.3,12.5,146.9,38.5l1,0.6V51.6L400,51.6
		z"/>
	<path class="st1" d="M395.7,307.4V52.8c-40.8-25.1-92.4-37.2-143.7-37.2c-52.7,0-104.9,12.8-144.6,37.2v254.6
		c0,60.7,37.3,99.6,85,116.7c18.6,6.6,38.9,10,59.1,10c20.2,0,40.5-3.3,59.1-10C358.4,407,395.7,368.1,395.7,307.4L395.7,307.4z
		 M243.5,249.8c42.8-2.7,21.9-50.3-3.7-31.8l-5.4-9.6c8.7-4.9,38.6-2.5,44.2,12.3c13.5,35.7,25.1,25.9,18.2,12.4
		c-27.9-54.3,33.3-22,43.5-3.7l-11.4-4.7c22.5,21.1,33.3,41.2,42.4,65.9c-18.9-25.9-31.6-39.3-50.3-50.6
		c35.2,63,49.4,155.4-45.7,171.2c41.7-26.2,55.4-46,53.6-92.7l-4.9,19.1l-2-20.1h-3.9c0.2,61.6-42.3,117.8-126.5,86.3
		c70,6.6,80.7-7.3,104.9-48.5c-0.4,0.1-0.7,0.3-1.1,0.4c2.3-4.8,3.5-10.2,3.5-15.8c0-20.6-16.8-37.5-37.5-37.5
		c-14.6,0-27.4,8.5-33.5,20.8c-121.7,9-80.5-150.7,29.3-146.9C92.3,254.9,246.6,333.2,243.5,249.8L243.5,249.8z M245.7,373.8
		c-11.3,2.2-22.9,2.3-38-0.4c12.4-3,21.3-4.3,28.3-6.1C238.9,369.9,242.1,372.1,245.7,373.8L245.7,373.8z M388,61.4v241.3
		c0,164.3-272.8,164.3-272.8,0V61.4l0-1.1l0.9-0.6c76.7-49.1,194.3-49.1,270.9,0l0.9,0.6L388,61.4L388,61.4z M384.1,302.7V62.5
		C308.9,15,194.3,15,119.1,62.5v240.2C119.1,461.6,384.1,461.6,384.1,302.7L384.1,302.7z"/>
	<path class="st2" d="M155.1,155.7l7.3-0.5c0.2,1.2,0.5,2.1,1,2.7c0.8,1,1.9,1.5,3.4,1.5c1.1,0,1.9-0.3,2.5-0.8
		c0.6-0.5,0.9-1.1,0.9-1.8c0-0.6-0.3-1.2-0.8-1.7c-0.6-0.5-1.9-1-3.9-1.4c-3.4-0.8-5.7-1.8-7.2-3c-1.4-1.3-2.2-2.8-2.2-4.8
		c0-1.3,0.4-2.5,1.1-3.6c0.7-1.1,1.8-2,3.3-2.7c1.5-0.6,3.5-1,6.1-1c3.2,0,5.6,0.6,7.2,1.8c1.7,1.2,2.6,3,3,5.6l-7.2,0.4
		c-0.2-1.1-0.6-1.9-1.2-2.4c-0.6-0.5-1.5-0.8-2.5-0.8c-0.9,0-1.6,0.2-2,0.6c-0.5,0.4-0.7,0.8-0.7,1.4c0,0.4,0.2,0.7,0.6,1.1
		c0.4,0.3,1.2,0.6,2.6,0.9c3.3,0.7,5.7,1.5,7.2,2.2c1.4,0.7,2.5,1.6,3.2,2.7c0.7,1.1,1,2.3,1,3.7c0,1.6-0.4,3-1.3,4.4
		c-0.9,1.3-2.1,2.4-3.7,3c-1.6,0.7-3.6,1-6,1c-4.2,0-7.1-0.8-8.7-2.4C156.3,160.2,155.4,158.2,155.1,155.7L155.1,155.7z M163.6,61.8
		l15.3-3v37.4c0,4.1-0.5,8-1.4,11.7c-0.9,3.7-2.4,6.9-4.3,9.6c-2,2.7-4,4.7-6.2,5.8c-3,1.5-6.6,2.3-10.8,2.3c-2.4,0-5.1-0.2-7.9-0.7
		c-2.9-0.5-5.2-1.4-7.2-2.8c-1.9-1.4-3.7-3.4-5.3-6c-1.6-2.6-2.7-5.3-3.3-8c-0.9-4.4-1.4-8.4-1.4-11.8V73.9l15.3-6.8v30.1
		c0,3.8,0.8,6.8,2.2,8.9c1.5,2.1,3.6,3.2,6.3,3.2c2.6,0,4.7-1.1,6.2-3.2c1.5-2.1,2.2-5.1,2.2-9L163.6,61.8L163.6,61.8z M186.9,57.2
		l14.4-1.1L220,93.2V53.8h14.5v70.5H220L201.3,86v38.3h-14.5V57.2L186.9,57.2z M243,53.8h15.4v70.5H243V53.8L243,53.8z M297.7,112.8
		h-17.5l-2.4,11.5h-15.7l18.7-69.8l16.8,1.1l18.7,68.6h-16.1L297.7,112.8L297.7,112.8z M294.5,97.7L289,72.7l-5.5,25.1H294.5
		L294.5,97.7z M295.5,36.2h5.4c0,0.8,0,1.5,0,2.1c0,3.5-0.6,6.3-1.9,8.2c-1.3,1.9-2.9,2.9-4.9,2.9c-1.4,0-3.6-0.9-6.6-2.5
		c-1.8-1-3-1.5-3.7-1.5c-0.7,0-1.2,0.3-1.5,0.9c-0.4,0.6-0.6,1.6-0.6,3.1h-5.3c0-0.8,0-1.4,0-2c0-3.4,0.7-6.1,2-8.1
		c1.3-2,2.9-3,4.7-3c0.8,0,1.5,0.1,2.2,0.4c0.7,0.2,2,0.9,3.9,2c1.9,1.1,3.3,1.7,4.1,1.7c0.6,0,1.1-0.3,1.5-0.9
		C295.3,38.8,295.5,37.7,295.5,36.2L295.5,36.2z M316.9,93.7c0-11.4,2.3-17.2,6.8-23.6c4.5-6.4,10.8-9.5,18.9-9.5
		c8.3,0,14.7,3.1,19.1,9.4c4.5,6.2,6.7,11.9,6.7,23.2c0,8.2-1,10.7-2.9,15.9c-2,5.2-4.8,9.3-8.5,12.2c-3.7,2.9-8.3,4.4-13.8,4.4
		c-5.6,0-10.2-1.2-13.9-3.8c-3.7-2.5-6.7-6.5-8.9-11.9C318,104.4,316.9,101.8,316.9,93.7L316.9,93.7z M332.3,93.8
		c0,7,0.9,7.9,2.8,11c1.9,3.1,4.4,4.6,7.6,4.6c3.3,0,5.9-1.5,7.7-4.5c1.8-3,2.7-4.3,2.7-12.1c0-6.6-0.9-8.3-2.8-11.4
		c-1.9-3-4.4-4.5-7.7-4.5c-3.1,0-5.6,1.5-7.5,4.6C333.2,84.6,332.3,86.7,332.3,93.8L332.3,93.8z M195.5,159.8h-8.7l-1.2,4.1h-7.8
		l9.3-24.8h8.3l9.3,24.8h-8L195.5,159.8L195.5,159.8z M193.9,154.4l-2.7-8.9l-2.7,8.9H193.9L193.9,154.4z M194.6,133h2.7
		c0,0.3,0,0.5,0,0.8c0,1.3-0.3,2.2-0.9,2.9c-0.6,0.7-1.4,1-2.4,1c-0.7,0-1.8-0.3-3.3-0.9c-0.9-0.4-1.5-0.5-1.8-0.5
		c-0.3,0-0.6,0.1-0.8,0.3c-0.2,0.2-0.3,0.6-0.3,1.1h-2.6c0-0.3,0-0.5,0-0.7c0-1.2,0.3-2.2,1-2.9c0.7-0.7,1.5-1.1,2.4-1.1
		c0.4,0,0.8,0,1.1,0.1c0.3,0.1,1,0.3,1.9,0.7c0.9,0.4,1.6,0.6,2.1,0.6c0.3,0,0.5-0.1,0.7-0.3C194.5,133.9,194.6,133.5,194.6,133
		L194.6,133z M205.1,151.5c0-4,1.1-7.2,3.4-9.4c2.3-2.3,5.4-3.4,9.4-3.4c4.1,0,7.3,1.1,9.5,3.3c2.2,2.2,3.3,5.3,3.3,9.3
		c0,2.9-0.5,5.3-1.5,7.1c-1,1.8-2.4,3.3-4.2,4.3c-1.8,1-4.1,1.5-6.9,1.5c-2.8,0-5.1-0.4-6.9-1.3c-1.8-0.9-3.3-2.3-4.4-4.2
		C205.7,156.8,205.1,154.4,205.1,151.5L205.1,151.5z M212.7,151.5c0,2.5,0.5,4.3,1.4,5.4c0.9,1.1,2.2,1.6,3.8,1.6
		c1.6,0,2.9-0.5,3.8-1.6c0.9-1.1,1.4-3,1.4-5.8c0-2.3-0.5-4-1.4-5.1c-0.9-1.1-2.2-1.6-3.8-1.6c-1.5,0-2.8,0.5-3.7,1.6
		C213.2,147.2,212.7,149,212.7,151.5L212.7,151.5z M256.7,139.1h7.7v13.5c0,2.8-0.3,5-0.8,6.4c-0.5,1.5-1.5,2.7-3,3.8
		c-1.5,1-3.5,1.5-5.8,1.5c-2.5,0-4.4-0.3-5.8-1c-1.4-0.7-2.4-1.7-3.2-3c-0.7-1.3-1.2-2.9-1.3-4.8l7.3-1c0,1.1,0.1,1.9,0.3,2.4
		c0.2,0.5,0.5,1,0.9,1.3c0.3,0.2,0.7,0.3,1.3,0.3c0.9,0,1.5-0.3,1.9-1c0.4-0.6,0.6-1.7,0.6-3.2L256.7,139.1L256.7,139.1z
		 M267.3,151.5c0-4,1.1-7.2,3.4-9.4c2.3-2.3,5.4-3.4,9.4-3.4c4.1,0,7.3,1.1,9.5,3.3c2.2,2.2,3.3,5.3,3.3,9.3c0,2.9-0.5,5.3-1.5,7.1
		c-1,1.8-2.4,3.3-4.2,4.3c-1.8,1-4.1,1.5-6.9,1.5c-2.8,0-5.1-0.4-6.9-1.3c-1.8-0.9-3.3-2.3-4.4-4.2
		C267.9,156.8,267.3,154.4,267.3,151.5L267.3,151.5z M275,151.5c0,2.5,0.5,4.3,1.4,5.4c0.9,1.1,2.2,1.6,3.8,1.6
		c1.6,0,2.9-0.5,3.8-1.6c0.9-1.1,1.4-3,1.4-5.8c0-2.3-0.5-4-1.4-5.1c-0.9-1.1-2.2-1.6-3.8-1.6c-1.5,0-2.8,0.5-3.7,1.6
		C275.4,147.2,275,149,275,151.5L275,151.5z M310,159.8h-8.7l-1.2,4.1h-7.8l9.3-24.8h8.3l9.3,24.8h-8L310,159.8L310,159.8z
		 M308.4,154.4l-2.7-8.9l-2.7,8.9H308.4L308.4,154.4z M318.9,151.5c0-4,1.1-7.2,3.4-9.4c2.3-2.3,5.4-3.4,9.4-3.4
		c4.1,0,7.3,1.1,9.5,3.3c2.2,2.2,3.3,5.3,3.3,9.3c0,2.9-0.5,5.3-1.5,7.1c-1,1.8-2.4,3.3-4.2,4.3c-1.8,1-4.1,1.5-6.9,1.5
		c-2.8,0-5.1-0.4-6.9-1.3c-1.8-0.9-3.3-2.3-4.4-4.2C319.5,156.8,318.9,154.4,318.9,151.5L318.9,151.5z M326.6,151.5
		c0,2.5,0.5,4.3,1.4,5.4c0.9,1.1,2.2,1.6,3.8,1.6c1.6,0,2.9-0.5,3.8-1.6c0.9-1.1,1.4-3,1.4-5.8c0-2.3-0.5-4-1.4-5.1
		c-0.9-1.1-2.2-1.6-3.8-1.6c-1.5,0-2.8,0.5-3.7,1.6C327,147.2,326.6,149,326.6,151.5L326.6,151.5z"/>
	<path class="st3" d="M227.9,236c7.2-1.3,7.3-1.1,11.6-9.2c3.7,7.6-0.9,14.1,2.6,21C232.7,249.6,227.6,243.4,227.9,236L227.9,236z
		 M249.3,220.2c1.8,0,3.2,1.5,3.2,3.2s-1.5,3.2-3.2,3.2c-1.8,0-3.2-1.5-3.2-3.2S247.5,220.2,249.3,220.2L249.3,220.2z M154.9,473.9
		h-14.4l-2,10.9h-12.9l15.4-66.1l15.4,6l13.8,60.2h-13.3L154.9,473.9L154.9,473.9z M152.2,459.6l-4.5-23.8l-4.5,23.8H152.2
		L152.2,459.6z M172.4,484.8v-53c6.5,1.8,34.7,3.2,37,18.4c0.5,3.6-0.5,6.8-1.4,9.5c-1,2.7-2.3,4.8-4,6.5c-1.1,1.1-2.6,1.9-4.4,2.6
		c1.5,0.8,2.6,1.6,3.3,2.5c3.9,4.6,5.1,8.8,9.9,13.6h-14.3c-2.3-2.4-9.5-13.7-12.2-13.7h-1.1v13.7L172.4,484.8L172.4,484.8z
		 M185.2,458.6c21.8,5.3,9.8-16.3,0-13.4V458.6L185.2,458.6z M240.1,479.9h-14.4l-2,4.9h-12.9l15.4-38.6l14.2,0.8l15,37.8h-13.3
		L240.1,479.9L240.1,479.9z M237.5,471.1l-4.5-11.8l-4.5,11.8H237.5L237.5,471.1z M260.5,484.8V447c22.4-6.5,49.5,1.3,29.9,22.2
		c-1.4,1.5-3.5,0.6-5.6,2c8.4,4.5,10.8,6,13.2,13.7h-14.3c-1.4-4.2-3.1-11.3-9.4-11.3h-1.1v11.3L260.5,484.8L260.5,484.8z
		 M273.2,465c15.2,0,16-9.9,0-9.9V465L273.2,465z M326.5,477.1h-15.6l-2,7.7H296l15.4-47l16.2-7.2l15,54.2h-14.1L326.5,477.1
		L326.5,477.1z M324.3,467.2l-4.9-19.4l-5.7,19.4H324.3L324.3,467.2z M354.2,468.9c1.3,2.7,3.2,4,5.6,4c1.8,0,3.2-0.7,4.2-2
		c1-1.4,1.5-3,1.5-4.8c0-1.7-0.5-3.2-1.4-4.6c-0.9-1.4-3.1-2.6-6.5-3.8c-5.6-2-9.5-4.7-11.9-8c-2.4-3.3-3.6-7.6-3.6-12.8
		c0-3.4,0.6-6.6,1.8-9.6c4.1-10.2,32-23.9,31.3-17c-0.3,3.4-0.7,6.7-1,10.1c0-1.1-17.3,6.6-18.1,11c-0.2,1.2-1.1,2.2-1.1,3.7
		c0,1,0.3,2,0.9,2.8c0.6,0.9,0.8,1.7,3,2.4c5.5,1.9,9.5,3.9,11.9,5.9c2.4,2,4.1,4.4,5.2,7.3c1.1,2.9,1.6,6.2,1.6,9.8
		c0,4.2-0.7,8.1-2.2,11.7c-1.4,3.6-3.5,6.3-6.1,8.1c-2.6,1.8-5.9,2.8-9.9,2.8c-7,0-12.5-1.8-14.5-6.5l-3.2-7.4L354.2,468.9
		L354.2,468.9z M297,362.1c-38,59.7-117.9,58.6-159.9-19.6c47.3,44.7,74.1,45.7,115.4,33.7c2.9,0.7,5.9,1.1,8.9,1.1
		c11.3,0,21.4-5,28.2-12.9C292.1,363.6,294.5,362.8,297,362.1L297,362.1z"/>
	<path class="st4" d="M318.6,236c46.6,35,40.7,57.5,39.7,114.7C348.9,312,337.3,270.3,318.6,236L318.6,236z M249.3,220.2
		c1.8,0,3.2,1.5,3.2,3.2s-1.5,3.2-3.2,3.2c-1.8,0-3.2-1.5-3.2-3.2S247.5,220.2,249.3,220.2L249.3,220.2z M251.2,215.9
		c7.9-1.3,13.9,6.6,14.5,14.7c0.9,12.7-17.6,17.8-21.3,16c-2.9-3-0.1-11.8-1.8-17.5C240.2,221.6,236.9,218.4,251.2,215.9
		L251.2,215.9z M232.8,210.5l6.4,13.7c-12.5,11.6-13.2,2.9-15.7,26C207.8,236,220.2,209.8,232.8,210.5L232.8,210.5z M232.3,363.2
		c-15.6,2.2-30.6,1.6-45.2-1.2l8.8-4.9l-26.5-5.9l20.6-3.4c-50.2-9.6-54.7-38.7-57.4-71.1l11.8,11.3c-9.6-50,10.3-73.1,39.7-95.1
		c-62.7,83-15.4,120.7,50,121.3c-6.3,6.7-10.1,15.7-10.1,25.6C224.1,348.7,227.2,356.8,232.3,363.2L232.3,363.2z M282.2,308.6
		c0.7-0.2,1.4-0.3,2.1-0.5l-0.3,1.7C283.4,309.4,282.8,309,282.2,308.6L282.2,308.6z"/>
	<path class="st2" d="M261.6,302.3c20.7,0,37.5,16.9,37.5,37.5s-16.9,37.5-37.5,37.5s-37.5-16.9-37.5-37.5S240.9,302.3,261.6,302.3
		L261.6,302.3z M252.3,306.2l9.1-1.4l9.2,1l-0.3,3.2l-8.6,4.2l-9.3-3.5L252.3,306.2L252.3,306.2z M275,373.4l8-4.6l6.5-6.6l-2.3-2.3
		l-9.3,2.1l-5.1,8.6L275,373.4L275,373.4z M249.3,373.4l-8-4.6l-6.5-6.6l2.3-2.3l9.3,2.1l5.1,8.6L249.3,373.4L249.3,373.4z
		 M296.9,338l-1.7-9.1l-4-8.3l-2.9,1.4l-1.1,9.5l6.3,7.7L296.9,338L296.9,338z M225.6,338l1.7-9.1l4-8.3l2.9,1.4l1.1,9.5l-6.3,7.7
		L225.6,338L225.6,338z M291.2,342.6l-4.7,13.6l-9,4.5l-5.1-8.6l5.1-14.1l7.7-3.9L291.2,342.6L291.2,342.6z M232.1,342.6l4.7,13.6
		l9,4.5l5.1-8.6l-5.1-14.1L238,334L232.1,342.6L232.1,342.6z M254.3,353.6l14.3-0.2l7.3,6.9l-6.4,7.7l-15,0l-6.3-5.9L254.3,353.6
		L254.3,353.6z M284.9,322l-11.3-8.8l-10,1.1l0.5,10l12,9.1l8.6-0.9L284.9,322L284.9,322z M238.5,322l11.3-8.8l10,1.1l-0.5,10
		l-12,9.1l-8.6-0.9L238.5,322L238.5,322z"/>
</g>
</svg>
