<svg width="24" height="24" viewBox="0 0 24 24" fill="none" xmlns="http://www.w3.org/2000/svg">
<path d="M11.997 18.532C12.2419 18.532 12.4783 18.622 12.6614 18.7847C12.8444 18.9475 12.9613 19.1717 12.99 19.415L12.997 19.532V20.988C12.9965 21.2428 12.8987 21.4878 12.7236 21.6729C12.5486 21.8581 12.3095 21.9694 12.0551 21.9842C11.8007 21.999 11.5503 21.9162 11.355 21.7526C11.1596 21.589 11.0341 21.357 11.004 21.104L10.997 20.988V19.532C10.997 19.2668 11.1024 19.0124 11.2899 18.8249C11.4774 18.6374 11.7318 18.532 11.997 18.532ZM18.033 16.6L19.063 17.63C19.245 17.8187 19.3457 18.0714 19.3432 18.3336C19.3407 18.5958 19.2354 18.8465 19.0498 19.0318C18.8643 19.2171 18.6134 19.3221 18.3512 19.3242C18.089 19.3263 17.8365 19.2253 17.648 19.043L16.619 18.014C16.4368 17.8254 16.3361 17.5728 16.3383 17.3106C16.3406 17.0484 16.4458 16.7976 16.6312 16.6122C16.8166 16.4268 17.0674 16.3216 17.3296 16.3193C17.5918 16.317 17.8444 16.4178 18.033 16.6ZM7.37301 16.6C7.56048 16.7875 7.66579 17.0418 7.66579 17.307C7.66579 17.5722 7.56048 17.8265 7.37301 18.014L6.34501 19.044C6.15737 19.2316 5.90287 19.3371 5.63751 19.3371C5.37214 19.3371 5.11765 19.2316 4.93001 19.044C4.74237 18.8564 4.63695 18.6019 4.63695 18.3365C4.63695 18.0711 4.74237 17.8166 4.93001 17.629L5.96001 16.599C6.14753 16.4115 6.40184 16.3062 6.66701 16.3062C6.93217 16.3062 7.18648 16.4115 7.37401 16.599L7.37301 16.6ZM12.01 6.472C13.4753 6.472 14.8806 7.0541 15.9168 8.09024C16.9529 9.12637 17.535 10.5317 17.535 11.997C17.535 13.4623 16.9529 14.8676 15.9168 15.9038C14.8806 16.9399 13.4753 17.522 12.01 17.522C10.5447 17.522 9.13938 16.9399 8.10324 15.9038C7.0671 14.8676 6.48501 13.4623 6.48501 11.997C6.48501 10.5317 7.0671 9.12637 8.10324 8.09024C9.13938 7.0541 10.5447 6.472 12.01 6.472ZM11.25 9C11.0688 9.00001 10.8937 9.06564 10.7571 9.18477C10.6205 9.30389 10.5317 9.46845 10.507 9.648L10.5 9.75V12.754L10.507 12.856C10.5293 13.0183 10.6042 13.1688 10.7201 13.2846C10.836 13.4003 10.9867 13.4749 11.149 13.497L11.25 13.504H13.25L13.352 13.497C13.5142 13.4747 13.6646 13.4 13.7803 13.2843C13.896 13.1686 13.9707 13.0182 13.993 12.856L14 12.754L13.993 12.652C13.9707 12.4898 13.896 12.3394 13.7803 12.2237C13.6646 12.108 13.5142 12.0333 13.352 12.011L13.25 12.004H12V9.75L11.994 9.648C11.9693 9.46828 11.8804 9.30358 11.7436 9.18444C11.6068 9.06529 11.4314 8.99977 11.25 9ZM20.977 11.018C21.2319 11.0183 21.477 11.1159 21.6624 11.2908C21.8477 11.4658 21.9592 11.705 21.9742 11.9594C21.9891 12.2138 21.9063 12.4644 21.7427 12.6598C21.5792 12.8553 21.3471 12.9809 21.094 13.011L20.977 13.018H19.522C19.2671 13.0177 19.022 12.9201 18.8366 12.7452C18.6513 12.5702 18.5398 12.331 18.5248 12.0766C18.5099 11.8222 18.5927 11.5716 18.7563 11.3762C18.9199 11.1807 19.1519 11.0551 19.405 11.025L19.522 11.018H20.978H20.977ZM4.48001 10.99C4.73489 10.9903 4.98004 11.0879 5.16537 11.2628C5.35071 11.4378 5.46224 11.677 5.47718 11.9314C5.49212 12.1858 5.40933 12.4364 5.24574 12.6318C5.08215 12.8273 4.8501 12.9529 4.59701 12.983L4.48001 12.99H3.02301C2.76821 12.9895 2.52323 12.8917 2.33808 12.7166C2.15294 12.5416 2.0416 12.3025 2.02679 12.0481C2.01199 11.7937 2.09484 11.5433 2.25842 11.348C2.42201 11.1526 2.65399 11.0271 2.90701 10.997L3.02301 10.99H4.48001ZM6.25001 4.874L6.34501 4.957L7.37401 5.987C7.55335 6.16696 7.65748 6.40843 7.66523 6.66238C7.67299 6.91633 7.58379 7.16371 7.41576 7.35428C7.24772 7.54484 7.01345 7.66431 6.76053 7.6884C6.50761 7.71249 6.255 7.63941 6.05401 7.484L5.96001 7.4L4.93001 6.371C4.75066 6.19104 4.64653 5.94957 4.63878 5.69562C4.63102 5.44167 4.72022 5.19429 4.88826 5.00372C5.05629 4.81316 5.29056 4.6937 5.54348 4.6696C5.7964 4.64551 6.04901 4.71859 6.25001 4.874ZM19.063 4.957C19.2352 5.12919 19.3386 5.35829 19.3539 5.60132C19.3692 5.84435 19.2953 6.0846 19.146 6.277L19.063 6.371L18.033 7.401C17.853 7.58035 17.6116 7.68447 17.3576 7.69223C17.1037 7.69998 16.8563 7.61079 16.6657 7.44275C16.4752 7.27472 16.3557 7.04045 16.3316 6.78753C16.3075 6.5346 16.3806 6.28199 16.536 6.081L16.619 5.986L17.649 4.956C17.8365 4.76853 18.0908 4.66321 18.356 4.66321C18.6212 4.66321 18.8755 4.76953 19.063 4.957ZM12 2.013C12.2449 2.01303 12.4813 2.10296 12.6644 2.26572C12.8474 2.42847 12.9643 2.65275 12.993 2.896L13 3.013V4.468C13.002 4.72443 12.9055 4.97185 12.7303 5.15911C12.5551 5.34637 12.3146 5.45917 12.0586 5.47419C11.8026 5.48921 11.5506 5.40531 11.3547 5.23982C11.1588 5.07433 11.034 4.83991 11.006 4.585L11 4.468V3.013C11 2.74778 11.1054 2.49343 11.2929 2.30589C11.4804 2.11836 11.7348 2.013 12 2.013Z" fill="#DAD8F7"/>
</svg>
